<svg width="13" height="22" viewBox="0 0 13 22" fill="none" xmlns="http://www.w3.org/2000/svg">
<path d="M11.9494 21.1552C12.1102 20.9952 12.2002 20.7804 12.2002 20.5567C12.2002 20.333 12.1102 20.1182 11.9494 19.9582L2.96667 11L11.9494 2.04362C12.1102 1.88359 12.2002 1.66878 12.2002 1.44509C12.2002 1.2214 12.1102 1.00658 11.9494 0.846563C11.8712 0.768534 11.7778 0.706514 11.6746 0.664167C11.5714 0.62182 11.4605 0.600004 11.3485 0.600004C11.2364 0.600004 11.1255 0.62182 11.0223 0.664167C10.9191 0.706514 10.8257 0.768534 10.7475 0.846563L1.1952 10.3746C1.02743 10.5419 0.93353 10.7663 0.93353 11C0.93353 11.2337 1.02743 11.4581 1.1952 11.6254L10.7475 21.1534C10.8257 21.2315 10.9191 21.2935 11.0223 21.3358C11.1255 21.3782 11.2364 21.4 11.3485 21.4C11.4605 21.4 11.5714 21.3782 11.6746 21.3358C11.7778 21.2935 11.8712 21.2315 11.9494 21.1534L11.9494 21.1552Z" fill="white"/>
</svg>
