<svg width="20" height="17" viewBox="0 0 20 17" fill="none" xmlns="http://www.w3.org/2000/svg">
<path d="M0.25 2.09375C0.25 1.77052 0.378403 1.46052 0.606963 1.23196C0.835523 1.0034 1.14552 0.875 1.46875 0.875H18.5312C18.8545 0.875 19.1645 1.0034 19.393 1.23196C19.6216 1.46052 19.75 1.77052 19.75 2.09375C19.75 2.41698 19.6216 2.72698 19.393 2.95554C19.1645 3.1841 18.8545 3.3125 18.5312 3.3125H1.46875C1.14552 3.3125 0.835523 3.1841 0.606963 2.95554C0.378403 2.72698 0.25 2.41698 0.25 2.09375ZM0.25 8.59375C0.25 8.27052 0.378403 7.96052 0.606963 7.73196C0.835523 7.5034 1.14552 7.375 1.46875 7.375H18.5312C18.8545 7.375 19.1645 7.5034 19.393 7.73196C19.6216 7.96052 19.75 8.27052 19.75 8.59375C19.75 8.91698 19.6216 9.22698 19.393 9.45554C19.1645 9.6841 18.8545 9.8125 18.5312 9.8125H1.46875C1.14552 9.8125 0.835523 9.6841 0.606963 9.45554C0.378403 9.22698 0.25 8.91698 0.25 8.59375ZM0.25 15.0938C0.25 14.7705 0.378403 14.4605 0.606963 14.232C0.835523 14.0034 1.14552 13.875 1.46875 13.875H18.5312C18.8545 13.875 19.1645 14.0034 19.393 14.232C19.6216 14.4605 19.75 14.7705 19.75 15.0938C19.75 15.417 19.6216 15.727 19.393 15.9555C19.1645 16.1841 18.8545 16.3125 18.5312 16.3125H1.46875C1.14552 16.3125 0.835523 16.1841 0.606963 15.9555C0.378403 15.727 0.25 15.417 0.25 15.0938Z" fill="black"/>
</svg>
