<svg width="203" height="61" viewBox="0 0 203 61" fill="none" xmlns="http://www.w3.org/2000/svg">
<path d="M0 0H157.889L203 60H0V0Z" fill="#295077"/>
<path d="M26.88 15.392V23H28.02V15.392H30.876V14.432H24.024V15.392H26.88ZM37.9226 16.94H39.0026C38.9866 16.468 38.8946 16.064 38.7266 15.728C38.5666 15.384 38.3426 15.1 38.0546 14.876C37.7746 14.652 37.4466 14.488 37.0706 14.384C36.6946 14.28 36.2866 14.228 35.8466 14.228C35.4546 14.228 35.0706 14.28 34.6946 14.384C34.3266 14.48 33.9946 14.632 33.6986 14.84C33.4106 15.04 33.1786 15.3 33.0026 15.62C32.8266 15.932 32.7386 16.304 32.7386 16.736C32.7386 17.128 32.8146 17.456 32.9666 17.72C33.1266 17.976 33.3346 18.188 33.5906 18.356C33.8546 18.516 34.1506 18.648 34.4786 18.752C34.8066 18.848 35.1386 18.936 35.4746 19.016C35.8186 19.088 36.1546 19.16 36.4826 19.232C36.8106 19.304 37.1026 19.4 37.3586 19.52C37.6226 19.632 37.8306 19.78 37.9826 19.964C38.1426 20.148 38.2226 20.388 38.2226 20.684C38.2226 20.996 38.1586 21.252 38.0306 21.452C37.9026 21.652 37.7346 21.812 37.5266 21.932C37.3186 22.044 37.0826 22.124 36.8186 22.172C36.5626 22.22 36.3066 22.244 36.0506 22.244C35.7306 22.244 35.4186 22.204 35.1146 22.124C34.8106 22.044 34.5426 21.92 34.3106 21.752C34.0866 21.584 33.9026 21.372 33.7586 21.116C33.6226 20.852 33.5546 20.54 33.5546 20.18H32.4746C32.4746 20.7 32.5666 21.152 32.7506 21.536C32.9426 21.912 33.1986 22.224 33.5186 22.472C33.8466 22.712 34.2226 22.892 34.6466 23.012C35.0786 23.132 35.5346 23.192 36.0146 23.192C36.4066 23.192 36.7986 23.144 37.1906 23.048C37.5906 22.96 37.9506 22.816 38.2706 22.616C38.5906 22.408 38.8506 22.144 39.0506 21.824C39.2586 21.496 39.3626 21.104 39.3626 20.648C39.3626 20.224 39.2826 19.872 39.1226 19.592C38.9706 19.312 38.7626 19.08 38.4986 18.896C38.2426 18.712 37.9506 18.568 37.6226 18.464C37.2946 18.352 36.9586 18.256 36.6146 18.176C36.2786 18.096 35.9466 18.024 35.6186 17.96C35.2906 17.888 34.9946 17.8 34.7306 17.696C34.4746 17.592 34.2666 17.46 34.1066 17.3C33.9546 17.132 33.8786 16.916 33.8786 16.652C33.8786 16.372 33.9306 16.14 34.0346 15.956C34.1466 15.764 34.2906 15.612 34.4666 15.5C34.6506 15.388 34.8586 15.308 35.0906 15.26C35.3226 15.212 35.5586 15.188 35.7986 15.188C36.3906 15.188 36.8746 15.328 37.2506 15.608C37.6346 15.88 37.8586 16.324 37.9226 16.94ZM41.8879 14.432V23H43.0279V20L44.4559 18.668L47.5519 23H48.9919L45.2359 17.888L48.8479 14.432H47.3719L43.0279 18.704V14.432H41.8879Z" fill="white"/>
<path d="M41.81 39.954H38.56C38.144 43.126 36.584 44.686 33.828 44.686C32.866 44.686 32.034 44.504 31.306 44.088C30.578 43.698 30.032 43.178 29.616 42.502C29.2 41.826 28.888 41.098 28.68 40.292C28.472 39.512 28.368 38.654 28.368 37.744C28.368 36.548 28.524 35.456 28.888 34.442C29.252 33.428 29.85 32.57 30.708 31.868C31.566 31.192 32.606 30.828 33.854 30.828C35.05 30.828 36.038 31.166 36.87 31.79C37.676 32.414 38.196 33.298 38.43 34.39H41.654C41.342 32.362 40.484 30.802 39.028 29.71C37.572 28.618 35.856 28.072 33.906 28.072C32.086 28.072 30.5 28.54 29.148 29.424C27.796 30.308 26.782 31.478 26.106 32.934C25.43 34.39 25.092 35.976 25.092 37.744C25.092 40.682 25.872 43.022 27.458 44.79C29.018 46.558 31.124 47.442 33.75 47.442C36.038 47.442 37.91 46.766 39.366 45.414C40.822 44.062 41.628 42.242 41.81 39.954ZM54.1257 28.046C51.3697 28.046 49.1857 28.982 47.5737 30.802C45.9617 32.622 45.1817 34.936 45.1817 37.744C45.1817 40.656 45.9877 42.996 47.6257 44.764C49.2637 46.558 51.4217 47.442 54.0737 47.442C56.6997 47.442 58.8317 46.558 60.4957 44.764C62.1337 42.97 62.9657 40.63 62.9657 37.744C62.9657 34.884 62.1337 32.544 60.4957 30.75C58.8577 28.956 56.7257 28.046 54.1257 28.046ZM54.0737 30.776C55.7897 30.776 57.1417 31.426 58.1557 32.674C59.1697 33.922 59.6897 35.612 59.6897 37.718C59.6897 39.85 59.1697 41.54 58.1557 42.814C57.1417 44.088 55.7897 44.712 54.1257 44.712C52.3577 44.712 50.9797 44.088 49.9657 42.814C48.9517 41.566 48.4577 39.85 48.4577 37.692C48.4577 35.612 48.9517 33.922 49.9917 32.674C51.0057 31.426 52.3577 30.776 54.0737 30.776ZM82.3296 28.488H79.2096V42.138L70.6816 28.488H67.2756V47H70.3436V33.376L78.9756 47H82.3296V28.488ZM102.523 28.488H99.4033V42.138L90.8753 28.488H87.4693V47H90.5373V33.376L99.1693 47H102.523V28.488ZM121.027 28.488H107.689V47H121.183V44.218H110.913V38.758H120.299V36.132H110.913V31.218H121.027V28.488ZM141.382 39.954H138.132C137.716 43.126 136.156 44.686 133.4 44.686C132.438 44.686 131.606 44.504 130.878 44.088C130.15 43.698 129.604 43.178 129.188 42.502C128.772 41.826 128.46 41.098 128.252 40.292C128.044 39.512 127.94 38.654 127.94 37.744C127.94 36.548 128.096 35.456 128.46 34.442C128.824 33.428 129.422 32.57 130.28 31.868C131.138 31.192 132.178 30.828 133.426 30.828C134.622 30.828 135.61 31.166 136.442 31.79C137.248 32.414 137.768 33.298 138.002 34.39H141.226C140.914 32.362 140.056 30.802 138.6 29.71C137.144 28.618 135.428 28.072 133.478 28.072C131.658 28.072 130.072 28.54 128.72 29.424C127.368 30.308 126.354 31.478 125.678 32.934C125.002 34.39 124.664 35.976 124.664 37.744C124.664 40.682 125.444 43.022 127.03 44.79C128.59 46.558 130.696 47.442 133.322 47.442C135.61 47.442 137.482 46.766 138.938 45.414C140.394 44.062 141.2 42.242 141.382 39.954ZM159.002 28.488H143.948V31.296H149.85V47H153.1V31.296H159.002V28.488Z" fill="white"/>
<rect x="11" y="34.4348" width="11.1631" height="34.2781" transform="rotate(-41.7602 11 34.4348)" fill="#295077"/>
</svg>
