<svg width="203" height="60" viewBox="0 0 203 60" fill="none" xmlns="http://www.w3.org/2000/svg">
<path d="M0 0H157.889L203 60H0V0Z" fill="#295077"/>
<path d="M42.13 26.94H37.23L30.02 34.115V20.08H26.135V45H30.02V38.525L32.4 36.285L37.895 45H42.76L35.2 33.555L42.13 26.94ZM55.1888 26.415C52.3888 26.415 50.1488 27.29 48.4688 29.005C46.7888 30.755 45.9838 33.065 45.9838 35.97C45.9838 38.91 46.7888 41.255 48.4688 42.97C50.1138 44.72 52.3538 45.56 55.1888 45.56C57.9538 45.56 60.1588 44.72 61.7688 42.97C63.3788 41.255 64.2188 38.91 64.2188 35.97C64.2188 33.065 63.3788 30.755 61.7688 29.005C60.1238 27.29 57.9188 26.415 55.1888 26.415ZM55.1188 29.565C56.6938 29.565 57.9188 30.16 58.8288 31.28C59.7388 32.4 60.1938 33.975 60.1938 35.935C60.1938 37.965 59.7388 39.575 58.8288 40.73C57.9188 41.885 56.6938 42.445 55.1538 42.445C53.5438 42.445 52.2838 41.885 51.3738 40.73C50.4638 39.61 50.0088 38 50.0088 35.97C50.0088 34.01 50.4638 32.435 51.3738 31.28C52.2838 30.16 53.5088 29.565 55.1188 29.565ZM73.3109 26.94H69.5309V45H73.5209V34.605C73.5209 33.17 73.8709 32.015 74.5709 31.14C75.2709 30.265 76.2859 29.81 77.6509 29.81C78.8409 29.81 79.6459 30.16 80.0309 30.79C80.4159 31.455 80.6259 32.435 80.6259 33.695V45H84.6159V34.395C84.6159 32.96 84.9309 31.84 85.6309 31.035C86.2959 30.23 87.2759 29.81 88.5709 29.81C89.8309 29.81 90.6709 30.195 91.1259 30.895C91.5459 31.63 91.7909 32.645 91.7909 33.905V45H95.7809V32.19C95.7809 30.405 95.2209 29.005 94.1009 27.99C92.9809 26.975 91.5459 26.45 89.8659 26.45C87.4159 26.45 85.4559 27.5 84.0209 29.53C83.6009 28.55 82.9359 27.815 82.0609 27.255C81.1859 26.73 80.1709 26.45 78.9809 26.45C76.6709 26.45 74.7809 27.465 73.3109 29.495V26.94ZM101.7 32.505H105.48C105.62 31.35 106.005 30.51 106.635 30.02C107.23 29.53 108.175 29.285 109.505 29.285C111.955 29.285 113.215 30.195 113.215 32.015C113.215 32.715 113.11 33.135 112.97 33.31C112.76 33.59 112.41 33.765 111.92 33.905C111.395 34.045 110.415 34.185 109.015 34.36C108.385 34.43 107.965 34.5 107.755 34.535C107.545 34.57 107.16 34.64 106.565 34.71C105.935 34.815 105.515 34.92 105.27 34.99C105.025 35.06 104.64 35.2 104.15 35.34C103.66 35.515 103.275 35.69 103.065 35.865C102.855 36.075 102.575 36.285 102.225 36.565C101.875 36.845 101.63 37.16 101.49 37.475C101.35 37.825 101.21 38.21 101.105 38.63C100.965 39.085 100.93 39.575 100.93 40.065C100.93 41.745 101.455 43.04 102.575 44.02C103.66 45 105.13 45.455 107.02 45.455C109.715 45.455 111.815 44.755 113.355 43.285C113.6 44.755 114.58 45.455 116.295 45.455C116.995 45.455 117.835 45.35 118.885 45.07V42.27C118.535 42.34 118.255 42.34 117.975 42.34C117.59 42.34 117.345 42.27 117.205 42.06C117.065 41.885 117.03 41.535 117.03 41.01V31.84C117.03 29.985 116.33 28.62 115 27.71C113.67 26.835 111.85 26.38 109.61 26.38C104.745 26.38 102.12 28.445 101.7 32.505ZM113.18 35.935V38.07C113.18 39.61 112.9 40.66 112.375 41.185C111.395 42.165 110.03 42.62 108.28 42.62C107.23 42.62 106.425 42.41 105.865 41.92C105.305 41.465 105.025 40.8 105.025 39.925C105.025 39.47 105.095 39.085 105.27 38.735C105.41 38.385 105.62 38.14 105.83 37.93C106.04 37.72 106.355 37.545 106.775 37.405C107.195 37.265 107.545 37.195 107.825 37.125C108.105 37.055 108.49 36.985 108.98 36.915C109.12 36.915 109.47 36.845 109.995 36.775C110.52 36.705 110.905 36.67 111.15 36.635C111.395 36.6 111.71 36.53 112.13 36.39C112.515 36.25 112.865 36.11 113.18 35.935ZM128.078 35.515L121.253 45H125.943L130.388 38.35L134.973 45H139.768L132.873 35.305L138.998 26.94H134.378L130.423 32.505L126.643 26.94H121.813L128.078 35.515Z" fill="white"/>
</svg>
