<svg width="20" height="20" viewBox="0 0 20 20" fill="none" xmlns="http://www.w3.org/2000/svg">
<path d="M1.66663 10C1.66663 14.6025 5.39746 18.3333 9.99996 18.3333C14.6025 18.3333 18.3333 14.6025 18.3333 10C18.3333 5.3975 14.6025 1.66666 9.99996 1.66666C5.39746 1.66666 1.66663 5.3975 1.66663 10Z" stroke="#4D4E4D" stroke-width="1.5" stroke-linecap="round" stroke-linejoin="round"/>
<path d="M13.3333 9.99999C13.3333 4.99999 10.8333 1.70833 10.8333 1.70833L11.9821 3.74999L12.6624 5.55336L13.188 7.91666L13.3333 9.99999ZM13.3333 9.99999C13.3333 15 10.8333 18.2917 10.8333 18.2917L11.9024 16.4234L12.6198 14.5833L13.1237 12.5L13.3333 9.99999ZM6.66665 9.99999C6.66665 15 9.16665 18.2917 9.16665 18.2917L8.09753 16.4234L7.3802 14.5833L6.84516 12.3078L6.66665 9.99999ZM6.66665 9.99999C6.66665 4.99999 9.16665 1.70833 9.16665 1.70833L8.09753 3.57655L7.33753 5.55336L6.84516 7.69223L6.66665 9.99999ZM2.19165 12.9167H17.8083M2.19165 7.08333H17.8083" stroke="#4D4E4D" stroke-width="1.5" stroke-linecap="round" stroke-linejoin="round"/>
</svg>
