<svg width="12" height="6" viewBox="0 0 12 6" fill="none" xmlns="http://www.w3.org/2000/svg">
<path d="M10.9586 0.660249C10.8805 0.583929 10.7756 0.541203 10.6664 0.541203C10.5571 0.541203 10.4522 0.583929 10.3741 0.660249L5.99999 4.92412L1.62674 0.660249C1.5486 0.583929 1.44371 0.541202 1.33449 0.541202C1.22526 0.541202 1.12037 0.583929 1.04224 0.660249C1.00414 0.697345 0.973855 0.741699 0.953177 0.790691C0.9325 0.839683 0.921847 0.892321 0.921847 0.945498C0.921847 0.998675 0.9325 1.05131 0.953177 1.10031C0.973855 1.1493 1.00414 1.19365 1.04224 1.23075L5.69461 5.765C5.77631 5.84464 5.88589 5.88921 5.99999 5.88921C6.11408 5.88921 6.22366 5.84464 6.30536 5.765L10.9577 1.23075C10.9958 1.19365 11.0261 1.1493 11.0468 1.10031C11.0675 1.05131 11.0781 0.998676 11.0781 0.945499C11.0781 0.892322 11.0675 0.839684 11.0468 0.790691C11.0261 0.741699 10.9958 0.697346 10.9577 0.660249L10.9586 0.660249Z" fill="#767A7C"/>
</svg>
