<svg width="14" height="10" viewBox="0 0 14 10" fill="none" xmlns="http://www.w3.org/2000/svg">
<path d="M9 5C9 5.53043 8.78929 6.03914 8.41421 6.41421C8.03914 6.78929 7.53043 7 7 7C6.46957 7 5.96086 6.78929 5.58579 6.41421C5.21071 6.03914 5 5.53043 5 5C5 4.46957 5.21071 3.96086 5.58579 3.58579C5.96086 3.21071 6.46957 3 7 3C7.53043 3 8.03914 3.21071 8.41421 3.58579C8.78929 3.96086 9 4.46957 9 5Z" fill="#295077"/>
<path d="M0 5C0 5 2.625 0 7 0C11.375 0 14 5 14 5C14 5 11.375 10 7 10C2.625 10 0 5 0 5ZM7 8.18182C7.81223 8.18182 8.59118 7.84659 9.16551 7.24989C9.73984 6.65318 10.0625 5.84387 10.0625 5C10.0625 4.15613 9.73984 3.34682 9.16551 2.75012C8.59118 2.15341 7.81223 1.81818 7 1.81818C6.18777 1.81818 5.40882 2.15341 4.83449 2.75012C4.26016 3.34682 3.9375 4.15613 3.9375 5C3.9375 5.84387 4.26016 6.65318 4.83449 7.24989C5.40882 7.84659 6.18777 8.18182 7 8.18182V8.18182Z" fill="#295077"/>
</svg>
