<svg width="11" height="22" viewBox="0 0 11 22" fill="none" xmlns="http://www.w3.org/2000/svg">
<path d="M0.32049 1.08272C0.167851 1.23899 0.0823975 1.44877 0.0823975 1.66722C0.0823975 1.88567 0.167851 2.09545 0.32049 2.25172L8.84824 11L0.32049 19.7465C0.167851 19.9027 0.0823975 20.1125 0.0823975 20.331C0.0823975 20.5494 0.167851 20.7592 0.32049 20.9155C0.394684 20.9917 0.48339 21.0522 0.581375 21.0936C0.67936 21.1349 0.784636 21.1562 0.89099 21.1562C0.997344 21.1562 1.10262 21.1349 1.20061 21.0936C1.29859 21.0522 1.3873 20.9917 1.46149 20.9155L10.53 11.6107C10.6893 11.4473 10.7784 11.2282 10.7784 11C10.7784 10.7718 10.6893 10.5526 10.53 10.3892L1.46149 1.08447C1.3873 1.00827 1.29859 0.947705 1.20061 0.90635C1.10262 0.864995 0.997344 0.843689 0.89099 0.843689C0.784636 0.843689 0.67936 0.864995 0.581375 0.90635C0.48339 0.947705 0.394684 1.00827 0.32049 1.08447V1.08272Z" fill="#767A7C"/>
</svg>
