<svg width="14" height="24" viewBox="0 0 14 24" fill="none" xmlns="http://www.w3.org/2000/svg">
<path d="M0.0769043 3.34616C0.0769043 2.58112 0.368662 1.8474 0.887993 1.30643C1.40732 0.765462 2.11169 0.461548 2.84613 0.461548L11.1538 0.461548C11.8883 0.461548 12.5926 0.765462 13.112 1.30643C13.6313 1.8474 13.9231 2.58112 13.9231 3.34616V20.6539C13.9231 21.4189 13.6313 22.1526 13.112 22.6936C12.5926 23.2346 11.8883 23.5385 11.1538 23.5385H2.84613C2.11169 23.5385 1.40732 23.2346 0.887993 22.6936C0.368662 22.1526 0.0769043 21.4189 0.0769043 20.6539V3.34616ZM8.3846 19.2115C8.3846 18.829 8.23872 18.4622 7.97905 18.1917C7.71939 17.9212 7.3672 17.7692 6.99998 17.7692C6.63276 17.7692 6.28058 17.9212 6.02091 18.1917C5.76124 18.4622 5.61537 18.829 5.61537 19.2115C5.61537 19.5941 5.76124 19.9609 6.02091 20.2314C6.28058 20.5019 6.63276 20.6539 6.99998 20.6539C7.3672 20.6539 7.71939 20.5019 7.97905 20.2314C8.23872 19.9609 8.3846 19.5941 8.3846 19.2115Z" fill="#295077"/>
</svg>
