<svg width="6" height="12" viewBox="0 0 6 12" fill="none" xmlns="http://www.w3.org/2000/svg">
<path d="M0.660306 1.04137C0.583987 1.11951 0.54126 1.2244 0.54126 1.33362C0.54126 1.44285 0.583987 1.54774 0.660306 1.62587L4.92418 6L0.660306 10.3732C0.583987 10.4514 0.54126 10.5563 0.54126 10.6655C0.54126 10.7747 0.583987 10.8796 0.660306 10.9577C0.697403 10.9958 0.741756 11.0261 0.790749 11.0468C0.839741 11.0675 0.892379 11.0781 0.945556 11.0781C0.998733 11.0781 1.05137 11.0675 1.10036 11.0468C1.14936 11.0261 1.19371 10.9958 1.23081 10.9577L5.76506 6.30537C5.84469 6.22367 5.88926 6.11409 5.88926 6C5.88926 5.8859 5.84469 5.77632 5.76506 5.69462L1.23081 1.04225C1.19371 1.00415 1.14936 0.973867 1.10036 0.953189C1.05137 0.932512 0.998733 0.921859 0.945556 0.921859C0.892379 0.921859 0.839741 0.932512 0.790749 0.953189C0.741756 0.973867 0.697403 1.00415 0.660306 1.04225V1.04137Z" fill="#767A7C"/>
</svg>
