<svg width="242" height="79" viewBox="0 0 242 79" fill="none" xmlns="http://www.w3.org/2000/svg">
<path d="M12.8143 8.052V22H14.9043V8.052H20.1403V6.292H7.5783V8.052H12.8143ZM33.0591 10.89H35.0391C35.0098 10.0247 34.8411 9.284 34.5331 8.668C34.2398 8.03733 33.8291 7.51667 33.3011 7.106C32.7878 6.69533 32.1864 6.39467 31.4971 6.204C30.8078 6.01333 30.0598 5.918 29.2531 5.918C28.5344 5.918 27.8304 6.01333 27.1411 6.204C26.4664 6.38 25.8578 6.65867 25.3151 7.04C24.7871 7.40667 24.3618 7.88333 24.0391 8.47C23.7164 9.042 23.5551 9.724 23.5551 10.516C23.5551 11.2347 23.6944 11.836 23.9731 12.32C24.2664 12.7893 24.6478 13.178 25.1171 13.486C25.6011 13.7793 26.1438 14.0213 26.7451 14.212C27.3464 14.388 27.9551 14.5493 28.5711 14.696C29.2018 14.828 29.8178 14.96 30.4191 15.092C31.0204 15.224 31.5558 15.4 32.0251 15.62C32.5091 15.8253 32.8904 16.0967 33.1691 16.434C33.4624 16.7713 33.6091 17.2113 33.6091 17.754C33.6091 18.326 33.4918 18.7953 33.2571 19.162C33.0224 19.5287 32.7144 19.822 32.3331 20.042C31.9518 20.2473 31.5191 20.394 31.0351 20.482C30.5658 20.57 30.0964 20.614 29.6271 20.614C29.0404 20.614 28.4684 20.5407 27.9111 20.394C27.3538 20.2473 26.8624 20.02 26.4371 19.712C26.0264 19.404 25.6891 19.0153 25.4251 18.546C25.1758 18.062 25.0511 17.49 25.0511 16.83H23.0711C23.0711 17.7833 23.2398 18.612 23.5771 19.316C23.9291 20.0053 24.3984 20.5773 24.9851 21.032C25.5864 21.472 26.2758 21.802 27.0531 22.022C27.8451 22.242 28.6811 22.352 29.5611 22.352C30.2798 22.352 30.9984 22.264 31.7171 22.088C32.4504 21.9267 33.1104 21.6627 33.6971 21.296C34.2838 20.9147 34.7604 20.4307 35.1271 19.844C35.5084 19.2427 35.6991 18.524 35.6991 17.688C35.6991 16.9107 35.5524 16.2653 35.2591 15.752C34.9804 15.2387 34.5991 14.8133 34.1151 14.476C33.6458 14.1387 33.1104 13.8747 32.5091 13.684C31.9078 13.4787 31.2918 13.3027 30.6611 13.156C30.0451 13.0093 29.4364 12.8773 28.8351 12.76C28.2338 12.628 27.6911 12.4667 27.2071 12.276C26.7378 12.0853 26.3564 11.8433 26.0631 11.55C25.7844 11.242 25.6451 10.846 25.6451 10.362C25.6451 9.84867 25.7404 9.42333 25.9311 9.086C26.1364 8.734 26.4004 8.45533 26.7231 8.25C27.0604 8.04467 27.4418 7.898 27.8671 7.81C28.2924 7.722 28.7251 7.678 29.1651 7.678C30.2504 7.678 31.1378 7.93467 31.8271 8.448C32.5311 8.94667 32.9418 9.76067 33.0591 10.89ZM40.3287 6.292V22H42.4187V16.5L45.0367 14.058L50.7127 22H53.3527L46.4667 12.628L53.0887 6.292H50.3827L42.4187 14.124V6.292H40.3287Z" fill="#4D4E4D"/>
<path d="M38.3593 56.805H32.7343C32.0143 62.295 29.3143 64.995 24.5443 64.995C22.8793 64.995 21.4393 64.68 20.1793 63.96C18.9193 63.285 17.9743 62.385 17.2543 61.215C16.5343 60.045 15.9943 58.785 15.6343 57.39C15.2743 56.04 15.0943 54.555 15.0943 52.98C15.0943 50.91 15.3643 49.02 15.9943 47.265C16.6243 45.51 17.6593 44.025 19.1443 42.81C20.6293 41.64 22.4293 41.01 24.5893 41.01C26.6593 41.01 28.3693 41.595 29.8093 42.675C31.2043 43.755 32.1043 45.285 32.5093 47.175H38.0893C37.5493 43.665 36.0643 40.965 33.5443 39.075C31.0243 37.185 28.0543 36.24 24.6793 36.24C21.5293 36.24 18.7843 37.05 16.4443 38.58C14.1043 40.11 12.3493 42.135 11.1793 44.655C10.0093 47.175 9.4243 49.92 9.4243 52.98C9.4243 58.065 10.7743 62.115 13.5193 65.175C16.2193 68.235 19.8643 69.765 24.4093 69.765C28.3693 69.765 31.6093 68.595 34.1293 66.255C36.6493 63.915 38.0443 60.765 38.3593 56.805ZM59.6749 36.195C54.9049 36.195 51.1249 37.815 48.3349 40.965C45.5449 44.115 44.1949 48.12 44.1949 52.98C44.1949 58.02 45.5899 62.07 48.4249 65.13C51.2599 68.235 54.9949 69.765 59.5849 69.765C64.1299 69.765 67.8199 68.235 70.6999 65.13C73.5349 62.025 74.9749 57.975 74.9749 52.98C74.9749 48.03 73.5349 43.98 70.6999 40.875C67.8649 37.77 64.1749 36.195 59.6749 36.195ZM59.5849 40.92C62.5549 40.92 64.8949 42.045 66.6499 44.205C68.4049 46.365 69.3049 49.29 69.3049 52.935C69.3049 56.625 68.4049 59.55 66.6499 61.755C64.8949 63.96 62.5549 65.04 59.6749 65.04C56.6149 65.04 54.2299 63.96 52.4749 61.755C50.7199 59.595 49.8649 56.625 49.8649 52.89C49.8649 49.29 50.7199 46.365 52.5199 44.205C54.2749 42.045 56.6149 40.92 59.5849 40.92ZM108.489 36.96H103.089V60.585L88.3293 36.96H82.4343V69H87.7443V45.42L102.684 69H108.489V36.96ZM143.44 36.96H138.04V60.585L123.28 36.96H117.385V69H122.695V45.42L137.635 69H143.44V36.96ZM175.466 36.96H152.381V69H175.736V64.185H157.961V54.735H174.206V50.19H157.961V41.685H175.466V36.96ZM210.695 56.805H205.07C204.35 62.295 201.65 64.995 196.88 64.995C195.215 64.995 193.775 64.68 192.515 63.96C191.255 63.285 190.31 62.385 189.59 61.215C188.87 60.045 188.33 58.785 187.97 57.39C187.61 56.04 187.43 54.555 187.43 52.98C187.43 50.91 187.7 49.02 188.33 47.265C188.96 45.51 189.995 44.025 191.48 42.81C192.965 41.64 194.765 41.01 196.925 41.01C198.995 41.01 200.705 41.595 202.145 42.675C203.54 43.755 204.44 45.285 204.845 47.175H210.425C209.885 43.665 208.4 40.965 205.88 39.075C203.36 37.185 200.39 36.24 197.015 36.24C193.865 36.24 191.12 37.05 188.78 38.58C186.44 40.11 184.685 42.135 183.515 44.655C182.345 47.175 181.76 49.92 181.76 52.98C181.76 58.065 183.11 62.115 185.855 65.175C188.555 68.235 192.2 69.765 196.745 69.765C200.705 69.765 203.945 68.595 206.465 66.255C208.985 63.915 210.38 60.765 210.695 56.805ZM241.191 36.96H215.136V41.82H225.351V69H230.976V41.82H241.191V36.96Z" fill="#4D4E4D"/>
<rect y="52.6164" width="11.1631" height="34.2781" transform="rotate(-41.7602 0 52.6164)" fill="white"/>
</svg>
