<svg width="39" height="36" viewBox="0 0 39 36" fill="none" xmlns="http://www.w3.org/2000/svg">
<path d="M32 36C31.7 36 31.3 35.9 31 35.7C30 35.2 29.7 33.9 30.2 33C30.2 32.9 33.9 26.2 33.9 18C33.9 9.80001 30.3 3.00001 30.3 3.00001C29.8 2 30.1 0.800005 31.1 0.300005C32.1 -0.199995 33.3 0.100004 33.8 1.1C34 1.4 38.1 8.70001 38.1 18.1C38.1 27.5 34 34.8 33.8 35.1C33.4 35.6 32.7 36 32 36ZM27.8 29.8C27.9 29.6 30 24.8 30 18C30 11.2 27.9 6.40001 27.8 6.20001C27.4 5.20001 26.2 4.70001 25.2 5.20001C24.2 5.60001 23.7 6.80001 24.2 7.80001C24.2 7.80001 26 12.1 26 18C26 23.9 24.2 28.2 24.2 28.2C23.8 29.2 24.2 30.4 25.2 30.8C25.5 30.9 25.7 31 26 31C26.8 31 27.5 30.6 27.8 29.8ZM18.3 27C18.9 26.9 19.4 26.5 19.7 26C19.8 25.8 22 22.1 22 18C22 13.9 19.8 10.1 19.7 10C19.1 9.00001 17.9 8.70001 17 9.30001C16 9.90001 15.7 11.1 16.3 12C16.3 12 18 15 18 18C18 19.3 17.7 20.7 17.3 21.7L4.3 10.5C3.8 10.1 3.1 9.90001 2.5 10.1C1.9 10.3 1.3 10.7 1.1 11.4C1.1 11.5 0 14.5 0 18C0 21.5 1.1 24.5 1.1 24.7C1.5 25.7 2.6 26.3 3.7 25.9C4.7 25.5 5.3 24.4 4.9 23.3C4.9 23.3 4 20.7 4 18C4 17.2 4.1 16.4 4.2 15.7L16.7 26.5C17.1 26.8 17.5 27 18 27H18.3Z" fill="#ffffff"/>
</svg>
