<svg width="45" height="42" viewBox="0 0 45 42" fill="#ffffff" xmlns="http://www.w3.org/2000/svg">
<path d="M33.75 36.75V34.125H36.5625V36.75H33.75ZM25.3125 31.5V28.875H28.125V31.5H25.3125ZM25.3125 39.375H30.9375V36.75H28.125V34.125H25.3125V39.375ZM36.5625 34.125V28.875H39.375V34.125H36.5625ZM39.375 34.125H42.1875V39.375H36.5625V36.75H39.375V34.125ZM36.5625 26.25V23.625H42.1875V28.875H39.375V26.25H36.5625ZM33.75 26.25H30.9375V31.5H28.125V34.125H33.75V26.25ZM25.3125 26.25V23.625H30.9375V26.25H25.3125ZM8.4375 28.875H14.0625V34.125H8.4375V28.875Z" fill="#ffffff"/>
<path d="M19.6875 39.375H2.8125V23.625H19.6875V39.375ZM5.625 36.75H16.875V26.25H5.625V36.75ZM30.9375 7.875H36.5625V13.125H30.9375V7.875Z" fill="#ffffff"/>
<path d="M42.1875 18.375H25.3125V2.625H42.1875V18.375ZM28.125 15.75H39.375V5.25H28.125V15.75ZM8.4375 7.875H14.0625V13.125H8.4375V7.875Z" fill="#ffffff"/>
<path d="M19.6875 18.375H2.8125V2.625H19.6875V18.375ZM5.625 15.75H16.875V5.25H5.625V15.75Z" fill="#ffffff"/>
</svg>
