<svg width="20" height="20" viewBox="0 0 20 20" fill="none" xmlns="http://www.w3.org/2000/svg">
<path d="M10.8219 12.7406L9.75313 13.7531C9.64063 13.9219 9.45 14 9.25 14H8V15.25C8 15.6656 7.66563 16 7.25 16H6V17.25C6 17.6656 5.66563 18 5.25 18H2.75C2.33594 18 2 17.6656 2 17.25V14.75C2 14.55 2.07903 14.3594 2.21966 14.2188L7.25938 9.17813C7.09063 8.65 7 8.08438 7 7.5C7 4.4625 9.4625 2 12.5 2C15.5375 2 18 4.4625 18 7.5C18 10.5375 15.5375 13 12.5 13C11.9156 13 11.35 12.9094 10.8219 12.7406ZM13.75 7.5C14.4406 7.5 15 6.94063 15 6.25C15 5.55938 14.4406 5 13.75 5C13.0594 5 12.5 5.55938 12.5 6.25C12.5 6.94063 13.0594 7.5 13.75 7.5Z" fill="#4D4E4D"/>
</svg>
