<svg width="20" height="20" viewBox="0 0 20 20" fill="none" xmlns="http://www.w3.org/2000/svg">
<path d="M10.0098 7.62891C9.42585 7.62891 8.87898 7.85547 8.46492 8.26953C8.05281 8.68359 7.82429 9.23047 7.82429 9.81445C7.82429 10.3984 8.05281 10.9453 8.46492 11.3594C8.87898 11.7715 9.42585 12 10.0098 12C10.5938 12 11.1407 11.7715 11.5548 11.3594C11.9669 10.9453 12.1954 10.3984 12.1954 9.81445C12.1954 9.23047 11.9669 8.68359 11.5548 8.26953C11.3525 8.06574 11.1118 7.90416 10.8466 7.79418C10.5814 7.68421 10.297 7.62803 10.0098 7.62891ZM18.0626 12.2285L16.7852 11.1367C16.8458 10.7656 16.877 10.3867 16.877 10.0098C16.877 9.63281 16.8458 9.25195 16.7852 8.88281L18.0626 7.79102C18.1591 7.70841 18.2281 7.59839 18.2606 7.47558C18.293 7.35278 18.2873 7.223 18.2442 7.10352L18.2266 7.05274C17.8751 6.06971 17.3484 5.15851 16.672 4.36328L16.6368 4.32227C16.5547 4.22569 16.4452 4.15626 16.3228 4.12314C16.2004 4.09002 16.0709 4.09475 15.9512 4.13672L14.3653 4.70117C13.7794 4.2207 13.127 3.8418 12.42 3.57813L12.1134 1.91992C12.0902 1.795 12.0296 1.68008 11.9396 1.59043C11.8496 1.50077 11.7345 1.44062 11.6094 1.41797L11.5567 1.4082C10.5411 1.22461 9.47078 1.22461 8.45515 1.4082L8.40242 1.41797C8.27741 1.44062 8.16225 1.50077 8.07225 1.59043C7.98224 1.68008 7.92165 1.795 7.89851 1.91992L7.58992 3.58594C6.88958 3.85171 6.23717 4.2297 5.65828 4.70508L4.06062 4.13672C3.94102 4.09442 3.81138 4.08951 3.68893 4.12266C3.56648 4.1558 3.45701 4.22542 3.37507 4.32227L3.33991 4.36328C2.6647 5.15936 2.1381 6.07033 1.78523 7.05274L1.76765 7.10352C1.67976 7.34766 1.75202 7.62109 1.94929 7.79102L3.24226 8.89453C3.18171 9.26172 3.15241 9.63672 3.15241 10.0078C3.15241 10.3828 3.18171 10.7578 3.24226 11.1211L1.9532 12.2246C1.8567 12.3072 1.78764 12.4172 1.7552 12.54C1.72275 12.6629 1.72846 12.7926 1.77155 12.9121L1.78913 12.9629C2.14265 13.9453 2.66413 14.8535 3.34382 15.6523L3.37898 15.6934C3.46111 15.7899 3.57059 15.8594 3.69297 15.8925C3.81535 15.9256 3.94489 15.9209 4.06452 15.8789L5.66218 15.3105C6.24421 15.7891 6.89265 16.168 7.59382 16.4297L7.90242 18.0957C7.92555 18.2206 7.98615 18.3355 8.07615 18.4252C8.16616 18.5149 8.28132 18.575 8.40632 18.5977L8.45906 18.6074C9.48467 18.792 10.535 18.792 11.5606 18.6074L11.6134 18.5977C11.7384 18.575 11.8535 18.5149 11.9435 18.4252C12.0335 18.3355 12.0941 18.2206 12.1173 18.0957L12.4239 16.4375C13.1309 16.1719 13.7833 15.7949 14.3692 15.3145L15.9552 15.8789C16.0748 15.9212 16.2044 15.9261 16.3268 15.893C16.4493 15.8598 16.5588 15.7902 16.6407 15.6934L16.6759 15.6523C17.3555 14.8496 17.877 13.9453 18.2305 12.9629L18.2481 12.9121C18.3321 12.6699 18.2598 12.3984 18.0626 12.2285ZM10.0098 13.248C8.11335 13.248 6.57624 11.7109 6.57624 9.81445C6.57624 7.91797 8.11335 6.38086 10.0098 6.38086C11.9063 6.38086 13.4434 7.91797 13.4434 9.81445C13.4434 11.7109 11.9063 13.248 10.0098 13.248Z" fill="#4D4E4D"/>
</svg>
