<svg width="20" height="18" viewBox="0 0 20 18" fill="none" xmlns="http://www.w3.org/2000/svg">
<path d="M16.2316 17.3333C16.0872 17.3333 15.8947 17.287 15.7504 17.1942C15.2692 16.9623 15.1248 16.3594 15.3654 15.942C15.3654 15.8957 17.1458 12.7884 17.1458 8.98552C17.1458 5.18262 15.4135 2.029 15.4135 2.029C15.173 1.56523 15.3173 1.00871 15.7985 0.776826C16.2797 0.544942 16.8571 0.684072 17.0977 1.14784C17.194 1.28697 19.1668 4.67248 19.1668 9.03189C19.1668 13.3913 17.194 16.7768 17.0977 16.9159C16.9052 17.1478 16.5684 17.3333 16.2316 17.3333ZM14.2106 14.458C14.2587 14.3652 15.2692 12.1391 15.2692 8.98552C15.2692 5.8319 14.2587 3.60581 14.2106 3.51306C14.0181 3.04929 13.4407 2.8174 12.9595 3.04929C12.4783 3.2348 12.2377 3.79132 12.4783 4.25509C12.4783 4.25509 13.3444 6.24929 13.3444 8.98552C13.3444 11.7217 12.4783 13.716 12.4783 13.716C12.2858 14.1797 12.4783 14.7362 12.9595 14.9217C13.1038 14.9681 13.2001 15.0145 13.3444 15.0145C13.7294 15.0145 14.0662 14.829 14.2106 14.458ZM9.63927 13.1594C9.92798 13.1131 10.1686 12.9275 10.3129 12.6957C10.3611 12.6029 11.4197 10.887 11.4197 8.98552C11.4197 7.08407 10.3611 5.32175 10.3129 5.27537C10.0242 4.81161 9.44679 4.67248 9.01372 4.95074C8.53253 5.229 8.38818 5.78552 8.67689 6.20291C8.67689 6.20291 9.49491 7.59421 9.49491 8.98552C9.49491 9.58842 9.35056 10.2377 9.15808 10.7015L2.90261 5.50726C2.66202 5.32175 2.32518 5.229 2.03647 5.32175C1.74776 5.41451 1.45904 5.60001 1.3628 5.92465C1.3628 5.97103 0.833496 7.36233 0.833496 8.98552C0.833496 10.6087 1.3628 12 1.3628 12.0928C1.55528 12.5565 2.08459 12.8348 2.6139 12.6493C3.09509 12.4638 3.3838 11.9536 3.19133 11.4435C3.19133 11.4435 2.75826 10.2377 2.75826 8.98552C2.75826 8.6145 2.80637 8.24349 2.85449 7.91885L8.86937 12.9275C9.06184 13.0667 9.25432 13.1594 9.49491 13.1594H9.63927Z" fill="#4D4E4D"/>
</svg>
