<svg width="22" height="20" viewBox="0 0 22 20" fill="none" xmlns="http://www.w3.org/2000/svg">
<path d="M18.4777 20C18.3045 20 18.0735 19.9443 17.9003 19.833C17.3228 19.5548 17.1496 18.8313 17.4383 18.3304C17.4383 18.2748 19.5748 14.5461 19.5748 9.98261C19.5748 5.41914 17.4961 1.63479 17.4961 1.63479C17.2073 1.07827 17.3806 0.410446 17.958 0.132185C18.5354 -0.146076 19.2283 0.0208804 19.5171 0.577402C19.6325 0.744358 22 4.80696 22 10.0383C22 15.2696 19.6325 19.3322 19.5171 19.4991C19.2861 19.7774 18.8819 20 18.4777 20ZM16.0525 16.5496C16.1102 16.4383 17.3228 13.767 17.3228 9.98261C17.3228 6.19827 16.1102 3.52697 16.0525 3.41566C15.8215 2.85914 15.1286 2.58088 14.5512 2.85914C13.9738 3.08175 13.685 3.74957 13.9738 4.3061C13.9738 4.3061 15.0131 6.69914 15.0131 9.98261C15.0131 13.2661 13.9738 15.6591 13.9738 15.6591C13.7428 16.2157 13.9738 16.8835 14.5512 17.1061C14.7244 17.1617 14.8399 17.2174 15.0131 17.2174C15.4751 17.2174 15.8793 16.9948 16.0525 16.5496ZM10.5669 14.9913C10.9134 14.9357 11.2021 14.713 11.3753 14.4348C11.4331 14.3235 12.7034 12.2644 12.7034 9.98261C12.7034 7.70088 11.4331 5.5861 11.3753 5.53044C11.0289 4.97392 10.336 4.80697 9.81627 5.14088C9.23885 5.47479 9.06562 6.14262 9.41207 6.64349C9.41207 6.64349 10.3937 8.31305 10.3937 9.98261C10.3937 10.7061 10.2205 11.4852 9.9895 12.0417L2.48294 5.8087C2.19423 5.5861 1.79003 5.47479 1.44357 5.5861C1.09711 5.6974 0.750656 5.92001 0.635171 6.30957C0.635171 6.36523 0 8.03479 0 9.98261C0 11.9304 0.635171 13.6 0.635171 13.7113C0.866142 14.2678 1.50131 14.6017 2.13648 14.3791C2.71391 14.1565 3.06037 13.5444 2.8294 12.9322C2.8294 12.9322 2.30971 11.4852 2.30971 9.98261C2.30971 9.5374 2.36745 9.09218 2.4252 8.70262L9.64305 14.713C9.87402 14.88 10.105 14.9913 10.3937 14.9913H10.5669Z" fill="white"/>
</svg>
