<svg width="26" height="24" viewBox="0 0 26 24" fill="#EDEDED" xmlns="http://www.w3.org/2000/svg">
<path d="M19.2 21V19.5H20.8V21H19.2ZM14.4 18V16.5H16V18H14.4ZM14.4 22.5H17.6V21H16V19.5H14.4V22.5ZM20.8 19.5V16.5H22.4V19.5H20.8ZM22.4 19.5H24V22.5H20.8V21H22.4V19.5ZM20.8 15V13.5H24V16.5H22.4V15H20.8ZM19.2 15H17.6V18H16V19.5H19.2V15ZM14.4 15V13.5H17.6V15H14.4ZM4.80005 16.5H8.00005V19.5H4.80005V16.5Z" fill="#EDEDED"/>
<path d="M11.2 22.5H1.59998V13.5H11.2V22.5ZM3.19998 21H9.59998V15H3.19998V21ZM17.6 4.5H20.8V7.5H17.6V4.5Z" fill="#EDEDED"/>
<path d="M24 10.5H14.4V1.5H24V10.5ZM16 9H22.4V3H16V9ZM4.80005 4.5H8.00005V7.5H4.80005V4.5Z" fill="#EDEDED"/>
<path d="M11.2 10.5H1.59998V1.5H11.2V10.5ZM3.19998 9H9.59998V3H3.19998V9Z" fill="#EDEDED"/>
</svg>
