<svg width="25" height="29" viewBox="0 0 25 29" fill="none" xmlns="http://www.w3.org/2000/svg">
<path d="M10.7545 1.26927C11.2468 0.865974 11.8636 0.645599 12.5001 0.645599C13.1365 0.645599 13.7534 0.865974 14.2457 1.26927L23.8525 9.10198C24.1794 9.36998 24.4426 9.70731 24.623 10.0896C24.8035 10.4718 24.8967 10.8894 24.8959 11.3121V25.5199C24.8959 27.0854 23.6476 28.3542 22.1069 28.3542H18.3881C16.8474 28.3542 15.599 27.0854 15.599 25.5199V18.6927C15.599 18.1714 15.1834 17.7484 14.6694 17.7484H10.3308C9.81748 17.7484 9.40113 18.1714 9.40113 18.6927V25.5206C9.40113 27.0861 8.15279 28.3549 6.61207 28.3549H2.89332C1.35332 28.3542 0.104253 27.0854 0.104253 25.5199V11.3121C0.103463 10.8894 0.196674 10.4718 0.377139 10.0896C0.557604 9.70731 0.820806 9.36998 1.14769 9.10198L10.7545 1.26927Z" fill="#295077"/>
</svg>
